HIERARCHY
ROOT Hips
{
	OFFSET -0.001795 -0.223333 0.028219
	CHANNELS 6 Xposition Yposition Zposition Zrotation Yrotation Xrotation 
	JOINT LeftUpLeg
	{
		OFFSET 0.069520 -0.091406 -0.006815
		CHANNELS 3 Zrotation Yrotation Xrotation
		JOINT LeftLeg
		{
			OFFSET 0.034277 -0.375199 -0.004496
			CHANNELS 3 Zrotation Yrotation Xrotation
			JOINT LeftFoot
			{
				OFFSET -0.013596 -0.397961 -0.043693
				CHANNELS 3 Zrotation Yrotation Xrotation
				JOINT LeftToe
				{
					OFFSET 0.026358 -0.055791 0.119288
					CHANNELS 3 Zrotation Yrotation Xrotation
					End Site
					{
						OFFSET 0.000000 0.000000 0.000000
					}
				}
			}
		}
	}
	JOINT RightUpLeg
	{
		OFFSET -0.067670 -0.090522 -0.004320
		CHANNELS 3 Zrotation Yrotation Xrotation
		JOINT RightLeg
		{
			OFFSET -0.038290 -0.382569 -0.008850
			CHANNELS 3 Zrotation Yrotation Xrotation
			JOINT RightFoot
			{
				OFFSET 0.015774 -0.398415 -0.042312
				CHANNELS 3 Zrotation Yrotation Xrotation
				JOINT RightToe
				{
					OFFSET -0.025372 -0.048144 0.123348
					CHANNELS 3 Zrotation Yrotation Xrotation
					End Site
					{
						OFFSET 0.000000 0.000000 0.000000
					}
				}
			}
		}
	}
	JOINT Spine
	{
		OFFSET -0.002533 0.108963 -0.026696
		CHANNELS 3 Zrotation Yrotation Xrotation
		JOINT Spine1
		{
			OFFSET 0.005487 0.135180 0.001092
			CHANNELS 3 Zrotation Yrotation Xrotation
			JOINT Spine2
			{
				OFFSET 0.001457 0.052922 0.025425
				CHANNELS 3 Zrotation Yrotation Xrotation
				JOINT Neck
				{
					OFFSET -0.002778 0.213870 -0.042857
					CHANNELS 3 Zrotation Yrotation Xrotation
					JOINT Head
					{
						OFFSET 0.005152 0.064970 0.051349
						CHANNELS 3 Zrotation Yrotation Xrotation
						End Site
						{
							OFFSET 0.000000 0.000000 0.000000
						}
					}
				}
				JOINT LeftShoulder
				{
					OFFSET 0.078845 0.121749 -0.034090
					CHANNELS 3 Zrotation Yrotation Xrotation
					JOINT LeftArm
					{
						OFFSET 0.090977 0.030469 -0.008868
						CHANNELS 3 Zrotation Yrotation Xrotation
						JOINT LeftForeArm
						{
							OFFSET 0.259612 -0.012772 -0.027456
							CHANNELS 3 Zrotation Yrotation Xrotation
							JOINT LeftHand
							{
								OFFSET 0.249234 0.008986 -0.001171
								CHANNELS 3 Zrotation Yrotation Xrotation
								End Site
								{
									OFFSET 0.000000 0.000000 0.000000
								}
							}
						}
					}
				}
				JOINT RightShoulder
				{
					OFFSET -0.081759 0.118833 -0.038615
					CHANNELS 3 Zrotation Yrotation Xrotation
					JOINT RightArm
					{
						OFFSET -0.096012 0.032551 -0.009143
						CHANNELS 3 Zrotation Yrotation Xrotation
						JOINT RightForeArm
						{
							OFFSET -0.253742 -0.013329 -0.021401
							CHANNELS 3 Zrotation Yrotation Xrotation
							JOINT RightHand
							{
								OFFSET -0.255298 0.007772 -0.005559
								CHANNELS 3 Zrotation Yrotation Xrotation
								End Site
								{
									OFFSET 0.000000 0.000000 0.000000
								}
							}
						}
					}
				}
			}
		}
	}
}
MOTION
Frames: 11
Frame Time: 0.050000
-0.934944 0.920036 0.985315 -160.634250 71.619432 -163.548436 -3.128443 -0.444438 -7.699603 -10.406079 -8.139517 27.442085 19.855891 16.384564 13.599416 0.000000 0.000000 0.000000 -1.128983 -2.344774 1.120092 -43.604733 -19.053706 62.111317 34.864710 24.758421 40.374849 0.000000 0.000000 0.000000 4.757937 -3.195592 15.148992 -5.623590 1.954315 -21.053161 8.549708 13.559441 34.174289 8.662634 6.886830 -23.415005 0.000000 0.000000 0.000000 -4.770351 -2.553694 -21.757507 -55.766058 24.031680 -23.529545 -87.239893 -36.845138 15.655702 0.000000 0.000000 0.000000 -0.169557 -14.186971 -3.482021 73.451023 -14.363930 9.121047 59.842742 73.606208 69.312688 0.000000 0.000000 0.000000 
-0.887104 0.912600 0.955025 -164.065716 65.867602 -167.999215 -3.148769 -0.336157 -3.532064 -9.174299 -9.406188 29.590697 20.538700 13.681755 11.083404 0.000000 0.000000 0.000000 1.947782 -1.648991 -6.138912 -63.680811 -16.461886 74.230799 48.600675 30.141301 47.499513 0.000000 0.000000 0.000000 4.586968 -3.897890 16.549875 -4.430789 1.893024 -21.106611 7.414515 10.940166 34.279585 8.274084 7.705447 -25.666379 0.000000 0.000000 0.000000 -6.441895 -4.931229 -24.560364 -54.933797 24.816405 -22.100584 -87.904119 -39.826320 20.091849 0.000000 0.000000 0.000000 1.521634 -15.184134 -2.438993 73.240370 -11.911167 10.008163 41.425829 73.725690 52.150655 0.000000 0.000000 0.000000 
-0.836161 0.912362 0.921480 -164.221961 59.773760 -169.006510 -2.289650 -1.403666 2.652954 -5.676541 -8.196307 26.526730 19.627754 9.229746 8.721391 0.000000 0.000000 0.000000 5.998991 -2.014051 -13.596110 -69.551952 -15.891519 76.537921 49.329319 35.015844 42.215576 0.000000 0.000000 0.000000 6.381566 -4.818034 17.033132 -5.492921 1.490500 -21.486600 8.432461 7.094359 33.828469 6.973377 8.091849 -25.456140 0.000000 0.000000 0.000000 -7.521337 -5.742545 -27.121864 -52.904096 26.322396 -20.907461 -91.084870 -41.022672 24.214726 0.000000 0.000000 0.000000 1.399679 -15.075188 -2.367262 72.468367 -13.680542 9.234837 33.793239 72.587496 44.090689 0.000000 0.000000 0.000000 
-0.782411 0.926406 0.882978 -163.985880 56.306594 -169.086829 -1.696366 -4.488865 10.630531 -4.039772 -5.146102 19.803991 16.800078 7.586984 11.741383 0.000000 0.000000 0.000000 9.697462 -4.071024 -21.426668 -60.564833 -17.924577 69.904598 38.914261 33.189081 30.090575 0.000000 0.000000 0.000000 7.000636 -5.608419 17.795495 -4.044401 1.613664 -22.491335 7.062717 2.801303 33.559453 5.951477 8.985904 -26.799211 0.000000 0.000000 0.000000 -6.741237 -4.134657 -25.763136 -55.227769 24.518484 -22.218103 -95.110982 -40.048625 25.512116 0.000000 0.000000 0.000000 2.022941 -15.878010 -3.070020 69.389637 -14.292738 7.347111 36.104773 70.037001 44.382633 0.000000 0.000000 0.000000 
-0.725290 0.948609 0.839462 -164.161171 54.464544 -168.503733 -2.162143 -7.550067 16.370900 -3.433420 -3.186796 14.347077 9.897437 8.049730 18.529201 0.000000 0.000000 0.000000 12.908361 -5.140376 -25.283643 -36.938651 -19.985552 53.581321 24.412518 23.882110 18.120388 0.000000 0.000000 0.000000 7.793888 -5.183895 16.385268 -2.646901 1.759803 -21.907063 5.803806 -1.374285 32.536224 4.193846 9.619992 -28.107796 0.000000 0.000000 0.000000 -5.047826 -1.652286 -23.337051 -58.477963 23.357873 -25.214456 -98.553070 -37.903931 24.806449 0.000000 0.000000 0.000000 -0.765736 -14.831334 -4.732545 69.877217 -18.632772 6.357913 36.447153 69.193485 44.035552 0.000000 0.000000 0.000000 
-0.665559 0.969717 0.792497 -165.008689 53.322669 -168.113923 -2.683712 -9.538564 19.480770 -3.782402 -2.582805 12.013110 3.150547 9.524313 26.368569 0.000000 0.000000 0.000000 12.955136 -5.415332 -25.546116 -13.396997 -16.230236 33.222621 14.754383 13.606567 17.044504 0.000000 0.000000 0.000000 8.198525 -4.787660 15.280154 -2.037571 1.716006 -24.336848 4.624201 -4.656778 32.956109 2.278228 9.494905 -26.882267 0.000000 0.000000 0.000000 -3.453875 0.332767 -21.907864 -59.750017 22.229631 -26.876197 -97.830954 -34.270690 19.716745 0.000000 0.000000 0.000000 -0.857001 -13.377897 -3.933437 69.408652 -19.022688 5.572975 35.536827 68.502014 42.208971 0.000000 0.000000 0.000000 
-0.603832 0.980117 0.743511 -167.357126 52.519701 -170.369966 -1.623391 -8.930006 17.786068 -9.004145 -5.165077 19.787289 2.604166 11.658148 31.680375 0.000000 0.000000 0.000000 13.469829 -3.651330 -22.274804 -3.981039 -10.600543 19.506686 8.334462 7.881364 21.490219 0.000000 0.000000 0.000000 8.876505 -4.394112 14.026086 -1.197055 1.812147 -21.696128 2.992032 -4.271228 30.537608 1.751572 8.989568 -26.312933 0.000000 0.000000 0.000000 -4.126455 -1.596906 -21.341981 -58.414324 22.808490 -25.732196 -96.974956 -32.730103 16.530540 0.000000 0.000000 0.000000 -2.727241 -12.683618 -4.657341 71.523725 -21.301320 6.320871 34.343738 68.823057 40.687604 0.000000 0.000000 0.000000 
-0.541767 0.969721 0.694000 -168.102411 49.076224 -173.422269 2.470404 -9.778949 15.212944 -17.831239 -9.414459 30.631039 12.126577 13.812141 36.283057 0.000000 0.000000 0.000000 15.553871 -2.126252 -19.168147 -6.600872 -11.761611 21.127207 7.187792 6.345267 20.626256 0.000000 0.000000 0.000000 10.596712 -6.050854 15.299853 -4.927921 1.041938 -22.358206 6.541317 -3.816271 29.943478 2.838051 8.331444 -23.890837 0.000000 0.000000 0.000000 -4.019131 -2.808209 -23.684777 -58.577725 25.403002 -27.224471 -93.764393 -27.101333 8.657771 0.000000 0.000000 0.000000 -2.248346 -13.948711 -4.804192 71.126587 -22.129683 6.946271 38.722385 69.187660 44.596383 0.000000 0.000000 0.000000 
-0.481441 0.945966 0.646381 -169.081565 47.866220 -176.069251 7.147478 -9.122433 9.658893 -31.689776 -13.764609 43.390397 21.943457 17.418417 36.517021 0.000000 0.000000 0.000000 17.195146 -1.530936 -17.758660 -16.831968 -17.514684 32.460324 11.623173 9.632621 13.909909 0.000000 0.000000 0.000000 10.018834 -6.782596 16.916493 -3.768686 1.232036 -23.763412 6.510750 -1.799424 30.723387 3.149889 7.485041 -23.566710 0.000000 0.000000 0.000000 -4.833751 -4.676193 -26.292735 -56.408567 29.196968 -27.018245 -91.386140 -24.669483 6.071210 0.000000 0.000000 0.000000 -0.226319 -14.804876 -2.942312 70.483713 -18.673329 8.160669 36.357055 69.955265 43.165100 0.000000 0.000000 0.000000 
-0.424559 0.923927 0.602356 -169.321779 48.138235 -177.355211 9.892926 -6.701626 1.154764 -46.972741 -15.703850 54.977531 33.386315 22.515875 43.700053 0.000000 0.000000 0.000000 17.518135 -0.603412 -14.945738 -24.657245 -20.573156 39.438099 16.645629 13.906879 8.303644 0.000000 0.000000 0.000000 9.217822 -7.191622 18.208932 -4.562199 1.029760 -24.037510 8.840526 0.708720 30.561892 3.525734 6.835657 -22.424110 0.000000 0.000000 0.000000 -5.106364 -5.507585 -28.769169 -56.667657 31.829602 -27.902463 -83.977507 -21.611274 2.062446 0.000000 0.000000 0.000000 1.021710 -15.027067 -1.354096 69.674141 -12.468513 10.309784 31.627617 70.379894 40.392286 0.000000 0.000000 0.000000 
-0.369437 0.915801 0.560685 -170.434285 48.767280 -178.489109 9.530812 -4.644448 -8.002820 -52.064109 -16.576915 60.573087 43.048186 25.659358 48.686100 0.000000 0.000000 0.000000 16.966958 0.382262 -10.632826 -26.519851 -21.748305 40.994683 19.044904 15.289151 5.882567 0.000000 0.000000 0.000000 7.312905 -6.522397 18.592897 -3.209310 1.353183 -24.145662 8.548287 3.389887 30.941458 5.791816 5.400308 -21.393337 0.000000 0.000000 0.000000 -3.844960 -5.925239 -29.482425 -56.723505 33.654723 -29.510837 -80.445236 -18.713921 -1.249667 0.000000 0.000000 0.000000 2.233580 -16.300817 -0.075291 69.427163 -5.403854 13.818066 26.908373 73.477183 40.735011 0.000000 0.000000 0.000000 
